<?xml version="1.0" encoding="utf-8"?>
<!-- Generator: Adobe Illustrator 14.0.0, SVG Export Plug-In  -->
<!DOCTYPE svg [
	<!ENTITY ns_flows "http://ns.adobe.com/Flows/1.0/">
]>
<svg version="1.2" baseProfile="tiny"
	 xmlns="http://www.w3.org/2000/svg" xmlns:xlink="http://www.w3.org/1999/xlink" xmlns:a="http://ns.adobe.com/AdobeSVGViewerExtensions/3.0/"
	 x="0px" y="0px" width="64px" height="64px" viewBox="-1.8 -3.4 64 64" xml:space="preserve">
<defs>
</defs>
<ellipse fill="#CFE5AE" stroke="#555D50" stroke-width="2" cx="30.4" cy="27.6" rx="28.7" ry="25.6"/>
<ellipse fill="#2B3990" stroke="#FFFFFF" stroke-width="2" cx="29.8" cy="26.6" rx="28.8" ry="25.6"/>
<g>
	<path stroke="#000000" stroke-width="0.75" d="M30.5,37.5c-0.4,0-0.8-0.2-1.1-0.7c-0.2-0.4-0.5-1.1-0.7-2.1l-0.4-2.2
		c-0.3-1.4-0.9-4.4-1.6-9.1l-2.4,7.8l-0.7,2.5c-0.3,1-0.6,1.8-0.9,2.4c-0.3,0.7-0.8,1-1.4,1c-0.5,0-0.9-0.3-1.1-0.8
		c-0.2-0.4-0.3-0.8-0.5-1.4l-0.4-1.4c-0.8-3-1.5-6.3-2.2-9.7l-0.4,2.3l-1.6,6.8c-0.1,0.8-0.3,2-0.6,3.5c-0.2,0.7-0.6,1-1.2,1
		c-0.4,0-0.7-0.2-0.9-0.5c-0.2-0.3-0.3-0.6-0.3-1c0-1.4,0.3-3.2,0.8-5.3l1.3-5.2l0.7-4.1c0.4-1.9,0.7-3.1,1.1-3.7
		c0.3-0.5,0.7-0.7,1.2-0.7c0.5,0,0.9,0.3,1.2,1c0.3,0.8,0.7,2.3,1,4.7c0.4,2.8,1.1,5.9,2,9.2c1.2-3.3,2.2-6.8,3.1-10.3l0.4-1.9
		c0.1-0.8,0.3-1.4,0.6-1.8c0.3-0.6,0.8-1,1.3-1c0.7,0,1.2,0.7,1.6,2.1c0.1,0.5,0.3,1.5,0.5,3c0.5,3.9,1.1,7.2,1.8,10l0.6,2.2
		c0.3,1.2,0.5,1.9,0.5,2.2c0,0.4-0.1,0.7-0.4,0.9C31.2,37.4,30.9,37.5,30.5,37.5z"/>
	<path stroke="#000000" stroke-width="0.75" d="M46.5,36.6c-0.3,0-0.6-0.1-0.9-0.4c-2.7-2.8-5.7-4.7-9-5.7l0.1,2.5l0.1,2.5
		c0,0.4-0.1,0.7-0.3,0.9c-0.2,0.3-0.5,0.4-0.9,0.4s-0.6-0.1-0.9-0.4c-0.2-0.3-0.3-0.6-0.3-0.9c0-0.7,0-1.7-0.1-3
		c-0.1-1.3-0.1-2.4-0.1-3c0-0.8,0.1-2,0.2-3.5c0.2-1.6,0.2-2.7,0.2-3.5c0-0.4,0-1.1-0.1-1.9c-0.1-0.9-0.1-1.5-0.1-1.9
		c0-0.5,0.1-0.9,0.4-1.3c0.3-0.5,0.7-0.7,1.3-0.6l2.9,0.2c1.1,0.1,2,0.4,2.8,0.9c3.3,1.8,4.9,4.1,4.9,6.8c0,1.3-0.6,2.5-1.7,3.5
		c-0.9,0.8-2,1.4-3.4,1.8c2.5,1.4,4.4,2.9,5.7,4.5c0.2,0.3,0.3,0.6,0.3,0.9c0,0.4-0.1,0.7-0.4,0.9C47.1,36.5,46.8,36.6,46.5,36.6z
		 M38.7,19.5l-1.8-0.2L37,21c0.1,0.6,0.1,1.2,0.1,1.6c0,0.7-0.1,1.5-0.2,2.6l-0.3,2.6c0.1,0,0.3,0,0.5,0c0.2,0,0.4,0,0.5,0
		c2.1,0,3.6-0.3,4.7-0.9c0.5-0.3,0.9-0.6,1.3-1c0.4-0.5,0.6-0.9,0.6-1.2c0-1.2-0.6-2.3-1.9-3.3C41.2,20.2,40,19.7,38.7,19.5z"/>
</g>
<g>
	<path fill="#F7941E" stroke="#FFFFFF" stroke-width="0.5" d="M30.5,36.8c-0.4,0-0.8-0.2-1.1-0.7C29.2,35.6,29,35,28.8,34l-0.4-2.2
		c-0.3-1.4-0.9-4.4-1.6-9.1l-2.4,7.8l-0.7,2.5c-0.3,1-0.6,1.8-0.9,2.4c-0.3,0.7-0.8,1-1.4,1c-0.5,0-0.9-0.3-1.1-0.8
		c-0.2-0.4-0.3-0.8-0.5-1.4l-0.4-1.4c-0.8-3-1.5-6.3-2.2-9.7l-0.4,2.3L15.2,32c-0.1,0.8-0.3,2-0.6,3.5c-0.2,0.7-0.6,1-1.2,1
		c-0.4,0-0.7-0.2-0.9-0.5c-0.2-0.3-0.3-0.6-0.3-1c0-1.4,0.3-3.2,0.8-5.3l1.3-5.2l0.7-4.1c0.4-1.9,0.7-3.1,1.1-3.7
		c0.3-0.5,0.7-0.7,1.2-0.7c0.5,0,0.9,0.3,1.2,1c0.3,0.8,0.7,2.3,1,4.7c0.4,2.8,1.1,5.9,2,9.2c1.2-3.3,2.2-6.8,3.1-10.3l0.4-1.9
		c0.1-0.8,0.3-1.4,0.6-1.8c0.3-0.6,0.8-1,1.3-1c0.7,0,1.2,0.7,1.6,2.1c0.1,0.5,0.3,1.5,0.5,3c0.5,3.9,1.1,7.2,1.8,10l0.6,2.2
		c0.3,1.2,0.5,1.9,0.5,2.2c0,0.4-0.1,0.7-0.4,0.9C31.2,36.6,30.9,36.8,30.5,36.8z"/>
	<path fill="#F7941E" stroke="#FFFFFF" stroke-width="0.5" d="M46.5,35.8c-0.3,0-0.6-0.1-0.9-0.4c-2.7-2.8-5.7-4.7-9-5.7l0.1,2.5
		l0.1,2.5c0,0.4-0.1,0.7-0.3,0.9c-0.2,0.3-0.5,0.4-0.9,0.4c-0.3,0-0.6-0.1-0.9-0.4c-0.2-0.3-0.3-0.6-0.3-0.9c0-0.7,0-1.7-0.1-3
		c-0.1-1.3-0.1-2.4-0.1-3c0-0.8,0.1-2,0.2-3.5c0.2-1.6,0.2-2.7,0.2-3.5c0-0.4,0-1.1-0.1-1.9c-0.1-0.9-0.1-1.5-0.1-1.9
		c0-0.5,0.1-0.9,0.4-1.3c0.3-0.5,0.7-0.7,1.3-0.6l2.9,0.2c1.1,0.1,2,0.4,2.8,0.9c3.3,1.8,4.9,4.1,4.9,6.8c0,1.3-0.6,2.5-1.7,3.5
		c-0.9,0.8-2,1.4-3.4,1.8c2.5,1.4,4.4,2.9,5.7,4.5c0.2,0.3,0.3,0.6,0.3,0.9c0,0.4-0.1,0.7-0.4,0.9C47.1,35.7,46.8,35.8,46.5,35.8z
		 M38.7,18.8l-1.8-0.2l0.1,1.6c0.1,0.6,0.1,1.2,0.1,1.6c0,0.7-0.1,1.5-0.2,2.6l-0.3,2.6c0.1,0,0.3,0,0.5,0c0.2,0,0.4,0,0.5,0
		c2.1,0,3.6-0.3,4.7-0.9c0.5-0.3,0.9-0.6,1.3-1c0.4-0.5,0.6-0.9,0.6-1.2c0-1.2-0.6-2.3-1.9-3.3C41.2,19.5,40,18.9,38.7,18.8z"/>
</g>
</svg>
