<?xml version="1.0" encoding="utf-8"?>
<!-- Generator: Adobe Illustrator 14.0.0, SVG Export Plug-In  -->
<!DOCTYPE svg [
	<!ENTITY ns_flows "http://ns.adobe.com/Flows/1.0/">
]>
<svg version="1.2" baseProfile="tiny"
	 xmlns="http://www.w3.org/2000/svg" xmlns:xlink="http://www.w3.org/1999/xlink" xmlns:a="http://ns.adobe.com/AdobeSVGViewerExtensions/3.0/"
	 x="0px" y="0px" width="64px" height="64px" viewBox="-0.8 -2.4 64 64" xml:space="preserve">
<defs>
</defs>
<ellipse fill="#CFE5AE" stroke="#555D50" stroke-width="2" cx="31.4" cy="28.6" rx="28.7" ry="25.6"/>
<ellipse fill="#39B54A" stroke="#FFFFFF" stroke-width="4" cx="30.8" cy="27.6" rx="28.8" ry="25.6"/>
<g>
	<path stroke="#000000" stroke-width="0.75" d="M31.5,38.5c-0.4,0-0.8-0.2-1.1-0.7c-0.2-0.4-0.5-1.1-0.7-2.1l-0.4-2.2
		c-0.3-1.4-0.9-4.4-1.6-9.1l-2.4,7.8l-0.7,2.5c-0.3,1-0.6,1.8-0.9,2.4c-0.3,0.7-0.8,1-1.4,1c-0.5,0-0.9-0.3-1.1-0.8
		c-0.2-0.4-0.3-0.8-0.5-1.4l-0.4-1.4c-0.8-3-1.5-6.3-2.2-9.7l-0.4,2.3l-1.6,6.8c-0.1,0.8-0.3,2-0.6,3.5c-0.2,0.7-0.6,1-1.2,1
		c-0.4,0-0.7-0.2-0.9-0.5c-0.2-0.3-0.3-0.6-0.3-1c0-1.4,0.3-3.2,0.8-5.3l1.3-5.2l0.7-4.1c0.4-1.9,0.7-3.1,1.1-3.7
		c0.3-0.5,0.7-0.7,1.2-0.7c0.5,0,0.9,0.3,1.2,1c0.3,0.8,0.7,2.3,1,4.7c0.4,2.8,1.1,5.9,2,9.2c1.2-3.3,2.2-6.8,3.1-10.3l0.4-1.9
		c0.1-0.8,0.3-1.4,0.6-1.8c0.3-0.6,0.8-1,1.3-1c0.7,0,1.2,0.7,1.6,2.1c0.1,0.5,0.3,1.5,0.5,3c0.5,3.9,1.1,7.2,1.8,10l0.6,2.2
		c0.3,1.2,0.5,1.9,0.5,2.2c0,0.4-0.1,0.7-0.4,0.9C32.2,38.4,31.9,38.5,31.5,38.5z"/>
	<path stroke="#000000" stroke-width="0.75" d="M47.5,37.6c-0.3,0-0.6-0.1-0.9-0.4c-2.7-2.8-5.7-4.7-9-5.7l0.1,2.5l0.1,2.5
		c0,0.4-0.1,0.7-0.3,0.9c-0.2,0.3-0.5,0.4-0.9,0.4s-0.6-0.1-0.9-0.4c-0.2-0.3-0.3-0.6-0.3-0.9c0-0.7,0-1.7-0.1-3
		c-0.1-1.3-0.1-2.4-0.1-3c0-0.8,0.1-2,0.2-3.5c0.2-1.6,0.2-2.7,0.2-3.5c0-0.4,0-1.1-0.1-1.9c-0.1-0.9-0.1-1.5-0.1-1.9
		c0-0.5,0.1-0.9,0.4-1.3c0.3-0.5,0.7-0.7,1.3-0.6l2.9,0.2c1.1,0.1,2,0.4,2.8,0.9c3.3,1.8,4.9,4.1,4.9,6.8c0,1.3-0.6,2.5-1.7,3.5
		c-0.9,0.8-2,1.4-3.4,1.8c2.5,1.4,4.4,2.9,5.7,4.5c0.2,0.3,0.3,0.6,0.3,0.9c0,0.4-0.1,0.7-0.4,0.9C48.1,37.5,47.8,37.6,47.5,37.6z
		 M39.7,20.5l-1.8-0.2L38,22c0.1,0.6,0.1,1.2,0.1,1.6c0,0.7-0.1,1.5-0.2,2.6l-0.3,2.6c0.1,0,0.3,0,0.5,0c0.2,0,0.4,0,0.5,0
		c2.1,0,3.6-0.3,4.7-0.9c0.5-0.3,0.9-0.6,1.3-1c0.4-0.5,0.6-0.9,0.6-1.2c0-1.2-0.6-2.3-1.9-3.3C42.2,21.2,41,20.7,39.7,20.5z"/>
</g>
<g>
	<path fill="#F9ED32" stroke="#FFFFFF" stroke-width="0.25" stroke-linecap="square" d="M18.2,26.5c-0.4,1.4-0.9,3.5-1.5,6.3
		c-0.2,1-0.3,1.9-0.5,2.9c-0.3,1.2-0.9,1.8-1.8,1.8c-0.6,0-1-0.2-1.3-0.6c-0.3-0.3-0.4-0.8-0.4-1.2c0-1.4,0.3-3.1,0.8-5.1
		c0.8-3,1.3-4.7,1.4-5c0.2-1.3,0.5-2.6,0.7-4c0.4-1.8,0.8-3,1.2-3.6c0.4-0.6,1-0.9,1.6-0.9c0.7,0,1.3,0.4,1.6,1.2
		c0.3,0.7,0.7,2.3,1,4.6c0.4,2.2,0.9,4.7,1.6,7.2c0.9-2.6,1.8-5.4,2.6-8.4l0.7-3c0.4-1.2,1.1-1.8,2-1.8c0.9,0,1.5,0.7,2,2.1
		c0.2,0.6,0.4,1.7,0.6,3.2c0.5,3.7,1.1,6.8,1.8,9.4c0.7,2.7,1.1,4.1,1.1,4.3c0,0.5-0.2,0.9-0.6,1.3c-0.4,0.3-0.8,0.5-1.2,0.5
		c-0.9,0-1.5-0.7-2-2l-0.7-3.1c-0.4-1.5-0.8-3.8-1.3-6.7c-0.4,1.2-1,3-1.8,5.4l-0.7,2.4c-0.3,0.9-0.6,1.7-0.9,2.3
		c-0.4,0.8-1,1.2-1.8,1.2c-0.8,0-1.3-0.5-1.8-1.4l-0.7-2.4C19.3,31.3,18.7,28.9,18.2,26.5z"/>
	<path fill="#F9ED32" stroke="#FFFFFF" stroke-width="0.25" stroke-linecap="square" d="M47.5,36.9c-0.4,0-0.8-0.2-1.2-0.5
		c-2.5-2.4-5.2-4.1-8.1-5.1c0.1,2.5,0.1,3.9,0.1,4.2c0,0.5-0.2,0.9-0.5,1.2c-0.3,0.3-0.7,0.5-1.2,0.5c-0.5,0-0.9-0.2-1.2-0.5
		c-0.3-0.3-0.5-0.8-0.5-1.2c0-0.6,0-1.6,0-2.9c0-1.3,0-2.3,0-2.9l0-10.4c0-0.6,0.2-1.1,0.5-1.5c0.4-0.6,1-0.8,1.7-0.8
		c2,0.2,3,0.2,3,0.2c1.1,0.1,2.1,0.4,2.9,0.9c3.5,1.8,5.2,4.1,5.2,6.9c0,1.1-0.4,2.1-1.1,3s-1.8,1.6-3.3,2.2
		c2.2,1.3,3.8,2.6,4.9,3.9c0.3,0.3,0.4,0.7,0.4,1.1c0,0.5-0.2,0.9-0.5,1.2C48.3,36.7,47.9,36.9,47.5,36.9z M39.7,20.6
		c-0.1,0-0.5,0-1.4-0.1v6.8c0.2,0,0.4,0,0.5,0c2,0,3.5-0.3,4.4-0.8c0.4-0.2,0.8-0.5,1.1-0.9c0.3-0.4,0.5-0.6,0.5-0.8
		c0-1-0.6-1.9-1.7-2.8C42,21.3,40.9,20.8,39.7,20.6z"/>
</g>
</svg>
